<?xml version="1.0" encoding="UTF-8" standalone="no"?>
<!-- Created with Inkscape (http://www.inkscape.org/) -->

<svg
   width="50mm"
   height="50mm"
   viewBox="0 0 50 50"
   version="1.1"
   id="svg5"
   inkscape:version="1.1.2 (0a00cf5339, 2022-02-04)"
   sodipodi:docname="adult.svg"
   xmlns:inkscape="http://www.inkscape.org/namespaces/inkscape"
   xmlns:sodipodi="http://sodipodi.sourceforge.net/DTD/sodipodi-0.dtd"
   xmlns="http://www.w3.org/2000/svg"
   xmlns:svg="http://www.w3.org/2000/svg">
  <sodipodi:namedview
     id="namedview7"
     pagecolor="#ffffff"
     bordercolor="#666666"
     borderopacity="1.0"
     inkscape:pageshadow="2"
     inkscape:pageopacity="0.0"
     inkscape:pagecheckerboard="0"
     inkscape:document-units="mm"
     showgrid="false"
     width="50mm"
     inkscape:zoom="0.57370932"
     inkscape:cx="396.54228"
     inkscape:cy="561.25984"
     inkscape:window-width="1920"
     inkscape:window-height="1007"
     inkscape:window-x="0"
     inkscape:window-y="0"
     inkscape:window-maximized="1"
     inkscape:current-layer="layer1" />
  <defs
     id="defs2" />
  <g
     inkscape:label="Camada 1"
     inkscape:groupmode="layer"
     id="layer1">
    <g
       id="g6033"
       transform="matrix(0.03317757,0,0,-0.03317757,-111.51739,130.54281)">
      <rect
         style="fill:#addd54;fill-opacity:1;stroke-width:24.0282"
         id="rect764-3"
         width="1507.0425"
         height="1507.0425"
         x="3361.2288"
         y="-3934.6711"
         transform="scale(1,-1)" />
      <path
         d="m 4434.55,3099.26 c 29.34,6.72 61.39,-14.63 52.64,-47.21 -6.71,-24.81 -31.9,-34.69 -55.43,-31.98 -0.08,0 -0.15,0 -0.23,0 v 79.12 c 0.98,-0.15 1.96,-0.15 3.02,0.07"
         style="fill:#c39d81;fill-opacity:1;fill-rule:nonzero;stroke:none"
         id="path246" />
      <path
         d="M 3801.78,3099.19 V 3020 c -23.3,-2.42 -47.96,7.54 -54.6,32.05 -8.75,32.58 23.3,53.93 52.64,47.21 0.68,-0.15 1.36,-0.07 1.96,-0.07"
         style="fill:#c39d81;fill-opacity:1;fill-rule:nonzero;stroke:none"
         id="path248" />
      <path
         d="m 4418.18,2971.8 c 38.17,-30.39 60.57,-66.89 60.57,-106.11 0,-106.04 -162.46,-192.32 -362.02,-192.32 -199.63,0 -362.01,86.28 -362.01,192.32 0,30.24 13.8,58.22 33.41,80.62 15.46,17.65 37.18,25.65 36.28,52.12 -0.53,13.57 0,27.3 0,40.87 0,41.41 0,82.82 0,124.22 0,20.74 0,41.41 0,62.15 8.6,-1.29 17.5,-1.21 26.4,0.53 34.46,6.56 57.92,33.56 69.98,64.7 44.88,-30.47 103.1,-20.36 134.02,25.04 16.67,-16.96 38.17,-27.98 62.98,-27.98 28.06,-0.07 46.08,12.82 65.09,28.96 31.14,-44.57 88.84,-54.37 133.41,-24.13 -6.94,-4.68 31.75,-46.68 36.51,-50.08 16.89,-12.29 36.95,-17.12 56.11,-15.16 v -244.2 c 0.15,-0.23 0.3,-0.46 0.38,-0.76 0.6,-3.62 5.65,-6.79 7.91,-9.65 0.31,-0.3 0.61,-0.68 0.98,-1.14"
         style="fill:#f0ccab;fill-opacity:1;fill-rule:nonzero;stroke:none"
         id="path250" />
      <path
         d="m 4530.63,3063.59 c 0.08,-49.1 -44.64,-79.64 -89.9,-78.66 -1.43,0 -2.63,-0.23 -3.84,-0.61 -1.74,1.51 -3.47,2.95 -5.36,4.45 v 16.3 c 0.08,0 0.15,-0.08 0.23,-0.08 34.62,-4 70.67,18.17 71.95,55.58 1.28,39.37 -36.88,60.94 -72.18,53.4 v 21.57 c 1.13,0 2.27,0.08 3.47,0.38 49.48,13.72 95.63,-20.59 95.63,-72.33"
         style="fill:#f0ccab;fill-opacity:1;fill-rule:nonzero;stroke:none"
         id="path252" />
      <path
         d="m 3801.78,3004.91 v -16.14 c -1.66,-1.35 -3.24,-2.71 -4.9,-4.07 -0.75,0.15 -1.58,0.23 -2.49,0.23 -45.17,-0.98 -89.9,29.56 -89.9,78.66 0.08,51.74 46.23,86.05 95.63,72.33 0.61,-0.15 1.14,-0.23 1.66,-0.3 v -21.42 c -34.92,6.86 -72.32,-14.56 -71.04,-53.63 1.2,-37.1 36.73,-59.2 71.04,-55.66"
         style="fill:#f0ccab;fill-opacity:1;fill-rule:nonzero;stroke:none"
         id="path254" />
      <path
         d="m 4135.04,2893.81 c -13.99,-1.38 -35.95,-4.98 -49.23,0.41 -38.05,15.44 -7.06,55.81 1.89,73.46 11.95,23.55 21.55,48.01 29.64,73.13 2.99,9.26 -11.57,13.23 -14.54,4.01 -10.02,-31.06 -23.01,-60.26 -38.56,-88.91 -7.14,-13.16 -15.41,-26.29 -14.46,-41.92 2.57,-41.74 55.56,-38.2 85.26,-35.27 9.57,0.95 9.66,16.04 0,15.09"
         style="fill:#352018;fill-opacity:1;fill-rule:nonzero;stroke:none"
         id="path256" />
      <path
         d="m 4048.61,3070.98 c 0,47.29 -38.54,85.75 -85.83,85.75 -47.29,0 -85.75,-38.46 -85.75,-85.75 0,-47.29 38.46,-85.82 85.75,-85.82 47.29,0 85.83,38.53 85.83,85.82 z m -85.83,93.3 c 51.44,0 93.37,-41.86 93.37,-93.3 0,-51.43 -41.93,-93.37 -93.37,-93.37 -51.43,0 -93.29,41.94 -93.29,93.37 0,51.44 41.86,93.3 93.29,93.3"
         style="fill:#352018;fill-opacity:1;fill-rule:nonzero;stroke:none"
         id="path258" />
      <path
         d="m 3962.78,3156.73 c 47.29,0 85.83,-38.46 85.83,-85.75 0,-47.29 -38.54,-85.82 -85.83,-85.82 -47.29,0 -85.75,38.53 -85.75,85.82 0,47.29 38.46,85.75 85.75,85.75"
         style="fill:#ffffff;fill-opacity:1;fill-rule:nonzero;stroke:none"
         id="path260" />
      <path
         d="m 3962.79,3128.01 c -31.5,0 -57.04,-25.54 -57.04,-57.04 0,-31.5 25.54,-57.03 57.04,-57.03 31.5,0 57.03,25.53 57.03,57.03 0,31.5 -25.53,57.04 -57.03,57.04"
         style="fill:#3972c1;fill-opacity:1;fill-rule:nonzero;stroke:none"
         id="path262" />
      <path
         d="m 3962.79,3118.35 c -8.99,0 -16.27,-7.29 -16.27,-16.27 0,-8.98 7.28,-16.26 16.27,-16.26 8.98,0 16.26,7.28 16.26,16.26 0,8.98 -7.28,16.27 -16.26,16.27"
         style="fill:#ffffff;fill-opacity:1;fill-rule:nonzero;stroke:none"
         id="path264" />
      <path
         d="m 4359.09,3071.01 c 0,47.29 -38.54,85.75 -85.83,85.75 -47.29,0 -85.75,-38.46 -85.75,-85.75 0,-47.29 38.46,-85.83 85.75,-85.83 47.29,0 85.83,38.54 85.83,85.83 z m -85.83,93.29 c 51.43,0 93.37,-41.85 93.37,-93.29 0,-51.44 -41.94,-93.37 -93.37,-93.37 -51.44,0 -93.3,41.93 -93.3,93.37 0,51.44 41.86,93.29 93.3,93.29"
         style="fill:#352018;fill-opacity:1;fill-rule:nonzero;stroke:none"
         id="path266" />
      <path
         d="m 4273.26,3156.76 c 47.29,0 85.83,-38.46 85.83,-85.75 0,-47.29 -38.54,-85.83 -85.83,-85.83 -47.29,0 -85.75,38.54 -85.75,85.83 0,47.29 38.46,85.75 85.75,85.75"
         style="fill:#ffffff;fill-opacity:1;fill-rule:nonzero;stroke:none"
         id="path268" />
      <path
         d="m 4273.26,3128.04 c -31.5,0 -57.03,-25.54 -57.03,-57.04 0,-31.5 25.53,-57.04 57.03,-57.04 31.5,0 57.04,25.54 57.04,57.04 0,31.5 -25.54,57.04 -57.04,57.04"
         style="fill:#3972c1;fill-opacity:1;fill-rule:nonzero;stroke:none"
         id="path270" />
      <path
         d="m 4273.26,3118.37 c -8.98,0 -16.26,-7.28 -16.26,-16.26 0,-8.98 7.28,-16.26 16.26,-16.26 8.98,0 16.26,7.28 16.26,16.26 0,8.98 -7.28,16.26 -16.26,16.26"
         style="fill:#ffffff;fill-opacity:1;fill-rule:nonzero;stroke:none"
         id="path272" />
      <path
         d="m 4038.99,3234.93 c -50.47,12.62 -100.41,7.3 -147.31,-15.15 -13.13,-6.28 -1.66,-25.8 11.42,-19.54 41.22,19.73 85.57,23.95 129.88,12.87 14.13,-3.53 20.15,18.28 6.01,21.82"
         style="fill:#352018;fill-opacity:1;fill-rule:nonzero;stroke:none"
         id="path274" />
      <path
         d="m 4195.61,3234.93 c 50.48,12.62 100.41,7.3 147.32,-15.15 13.12,-6.28 1.66,-25.8 -11.42,-19.54 -41.22,19.73 -85.57,23.95 -129.88,12.87 -14.13,-3.53 -20.16,18.28 -6.02,21.82"
         style="fill:#352018;fill-opacity:1;fill-rule:nonzero;stroke:none"
         id="path276" />
      <path
         d="m 4274.59,2837.73 c -49.75,-28.94 -104.86,-40.81 -162.23,-39.53 -51.45,1.15 -115.41,8.44 -157.92,39.93 -7.8,5.78 -15.33,-7.31 -7.61,-13.03 44.98,-33.32 110.99,-40.77 165.53,-41.99 59.81,-1.33 117.97,11.42 169.84,41.6 8.39,4.88 0.81,17.92 -7.61,13.02"
         style="fill:#352018;fill-opacity:1;fill-rule:nonzero;stroke:none"
         id="path278" />
      <path
         d="m 4168.91,2427.65 c -4.79,23.89 -13.46,43.91 -24.32,56.34 l -0.15,-0.15 c -0.23,0.31 -0.38,0.68 -0.61,0.98 h -49.62 c -11.22,-12.4 -20.19,-32.78 -25.13,-57.18 33.27,0 66.55,0 99.83,0.01"
         style="fill:#2c3992;fill-opacity:1;fill-rule:nonzero;stroke:none"
         id="path280" />
      <path
         d="m 4121.66,2557.98 c 0.23,-0.23 0.38,-0.38 0.53,-0.68 l 30.62,-25.19 12.67,-10.71 -23.23,-19.61 h -46.46 l -23.15,19.61 12.74,10.79 c 8,6.63 16.07,13.27 24.06,19.83 3.25,2.72 6.34,5.51 9.5,8.22 0.76,-0.68 1.59,-1.35 2.34,-2.03 0.15,-0.15 0.3,-0.15 0.38,-0.23"
         style="fill:#2c3992;fill-opacity:1;fill-rule:nonzero;stroke:none"
         id="path282" />
      <path
         d="m 4412.76,2427.66 c -8.77,77.83 -53.83,146.08 -119.82,190.43 l -90.73,-126.63 -24.74,20.36 -21.42,-18.1 c 13.19,-15.13 23.14,-38.36 28.28,-66.07 76.14,0 152.29,0.01 228.43,0.01"
         style="fill:#b9e1e7;fill-opacity:1;fill-rule:nonzero;stroke:none"
         id="path284" />
      <path
         d="m 3844.97,2427.63 c 69.6,0.01 139.21,0.01 208.81,0.01 5.13,27.71 15.02,50.95 28.21,66.08 l -21.42,18.1 c -3.24,-2.71 -6.49,-5.43 -9.8,-8.07 -4.98,-4.07 -9.96,-8.22 -14.86,-12.29 0,0 -76.4,106.57 -93.6,130.47 -69.11,-44.12 -116.54,-114.14 -125.55,-194.3 9.4,0 18.8,0 28.21,0"
         style="fill:#b9e1e7;fill-opacity:1;fill-rule:nonzero;stroke:none"
         id="path286" />
      <path
         d="m 4211.79,2656.78 c 24.36,-7.54 47.28,-17.95 68.4,-30.62 l -80.85,-112.83 -36.88,30.4 -36.8,31.14 81.98,81.98 c 0.45,0.08 0.9,0.16 1.28,0.16 l 0.91,-0.31 c 0.07,0.15 0.15,0.31 0.22,0.46 0.76,0.15 1.43,0.22 2.19,0.3 -0.15,-0.23 -0.3,-0.45 -0.45,-0.68"
         style="fill:#b9e1e7;fill-opacity:1;fill-rule:nonzero;stroke:none"
         id="path288" />
      <path
         d="m 3956.72,2630.53 c 19.76,11.17 41.1,20.29 63.58,27.08 3.54,-0.53 7.16,-0.98 10.78,-1.44 l 81.38,-81.3 -36.73,-31.07 -36.96,-30.47 -83.33,116.22 1.5,0.53 c -0.07,0.15 -0.15,0.3 -0.22,0.45"
         style="fill:#b9e1e7;fill-opacity:1;fill-rule:nonzero;stroke:none"
         id="path290" />
      <path
         d="m 4183.5,2654.06 -21.64,-21.64 c -9.35,-9.35 -18.71,-18.7 -28.06,-28.06 -4.9,-4.9 -9.88,-9.8 -14.78,-14.7 -0.53,0.37 -1.06,0.9 -1.51,1.43 -0.3,0.45 -0.68,0.68 -0.98,0.98 l -61.47,61.47 c 20.07,-1.81 40.66,-2.8 61.7,-2.8 22.77,0 45.02,1.21 66.74,3.32"
         style="fill:#c39d81;fill-opacity:1;fill-rule:nonzero;stroke:none"
         id="path292" />
      <path
         d="m 4450.71,3264.81 c -33.86,-63.35 -104.38,-16.89 -117.65,34.77 -2.19,8.52 -12.9,10.71 -18.93,5.05 -36.65,-34.54 -93.07,-25.49 -117.58,18.25 -2.26,3.92 -4.75,8.53 -9.2,9.2 -4.22,0.68 -7.92,-2.41 -11.01,-5.35 -11.84,-11.24 -28.21,-30.25 -46.53,-30.25 -25.8,-4.6 -50.54,7.17 -65.85,27.84 -2.18,2.94 -5.05,4.37 -7.91,4.75 -4.76,2.11 -10.41,1.28 -13.43,-4.68 -24.21,-47.59 -80.7,-58.3 -119.61,-21.64 -6.04,5.65 -16.75,3.47 -18.93,-5.06 -13.28,-51.66 -83.8,-98.12 -117.66,-34.77 -6.86,12.82 -26.4,1.44 -19.53,-11.46 8.07,-15.01 20.36,-26.7 34.92,-33.86 v -0.07 c 3.18,-1.15 6.34,-2.34 9.52,-3.45 4.41,-0.81 8.75,-1.97 13.1,-3.47 0.02,-0.01 0.03,-0.02 0.05,-0.03 8.58,-1.28 17.47,-1.2 26.35,0.53 34.47,6.56 57.92,33.56 69.99,64.71 44.87,-30.47 103.1,-20.36 134.02,25.04 16.67,-16.97 38.16,-27.98 62.97,-27.98 28.06,-0.07 46.08,12.82 65.09,28.96 31.15,-44.57 88.84,-54.38 133.42,-24.13 -6.94,-4.68 31.75,-46.69 36.5,-50.08 15.96,-11.61 34.74,-16.49 52.92,-15.34 8.86,0.81 17.35,2.49 25.82,5.4 v 0.58 c 15.91,6.64 29.79,18.41 38.69,35.08 6.86,12.89 -12.67,24.28 -19.54,11.46"
         style="fill:#c39d81;fill-opacity:1;fill-rule:nonzero;stroke:none"
         id="path294" />
      <path
         d="m 3892.87,2959.05 c -51.9,0 -93.97,-18.05 -93.97,-40.32 0,-22.26 42.07,-40.31 93.97,-40.31 51.9,0 93.98,18.05 93.98,40.31 0,22.27 -42.08,40.32 -93.98,40.32"
         style="fill:#f8a46b;fill-opacity:1;fill-rule:nonzero;stroke:none"
         id="path296" />
      <path
         d="m 4345.39,2959.05 c -51.9,0 -93.98,-18.05 -93.98,-40.32 0,-22.26 42.08,-40.31 93.98,-40.31 51.9,0 93.97,18.05 93.97,40.31 0,22.27 -42.07,40.32 -93.97,40.32"
         style="fill:#f8a46b;fill-opacity:1;fill-rule:nonzero;stroke:none"
         id="path298" />
      <path
         d="m 4521.81,3293.85 c 27.3,-31.08 21.95,-72.78 -11.69,-96.09 -8.9,-6.11 -3.92,-13.57 -0.75,-21.34 0.9,-2.11 1.5,-4.3 1.96,-6.56 1.05,-5.36 0.83,-11.01 -0.68,-16.29 -0.6,-2.12 -1.74,-4.53 -3.85,-5.13 -1.96,-0.53 -4,0.6 -5.81,1.66 -9.57,5.65 -20.21,8.9 -31.22,10.33 -3.54,0.45 -38.24,2.04 -38.24,-2.11 v 75.04 c 15.92,6.64 29.79,18.4 38.69,35.07 6.87,12.9 -12.67,24.28 -19.53,11.46 -33.86,-63.35 -104.38,-16.89 -117.65,34.77 -2.19,8.52 -12.9,10.71 -18.93,5.05 -36.66,-34.54 -93.07,-25.49 -117.58,18.25 -2.27,3.93 -4.75,8.53 -9.2,9.21 -4.23,0.68 -7.92,-2.42 -11.01,-5.36 -11.85,-11.24 -28.21,-30.24 -46.54,-30.24 -25.79,-4.6 -50.53,7.16 -65.84,27.83 -2.19,2.94 -5.05,4.37 -7.92,4.75 -4.75,2.11 -10.41,1.28 -13.42,-4.68 -24.21,-47.59 -80.7,-58.3 -119.62,-21.64 -6.03,5.66 -16.74,3.47 -18.93,-5.05 -13.27,-51.67 -83.79,-98.12 -117.65,-34.77 -6.87,12.82 -26.4,1.43 -19.54,-11.47 8.07,-15 20.37,-26.7 34.92,-33.86 v -73.98 c -17.87,4.14 -34.01,1.88 -51.89,-0.76 -2.79,-0.38 -5.65,-0.75 -8.44,-0.15 -5.81,1.28 -7.77,7.54 -9.51,12.52 -2.03,5.88 -2.56,12.37 -1.28,18.48 0.68,3.69 2.04,7.24 4.15,10.48 0.38,0.6 0.83,1.21 0.76,1.96 0,0.75 -0.53,1.36 -1.06,1.89 -16.07,17.34 -34.69,26.69 -43.07,50.9 -7.91,23.16 0,45.26 20.14,59.06 5.58,3.77 8.3,12.67 2.34,17.72 -26.02,22.02 -31.22,58.07 -15.01,87.79 17.12,31.3 51.81,46.46 84.85,54.15 6.18,1.36 9.27,8.15 7.92,13.88 -17.5,75.49 51.66,134.02 123.61,107.62 5.43,-2.04 12.74,2.26 13.88,7.92 8.97,45.03 41.7,77.76 86.12,88.39 21.35,5.13 43.82,5.36 65.47,1.89 11.09,-1.81 22.02,-4.53 32.66,-8.22 11.08,-3.85 23.3,-12.82 35.29,-9.96 19.61,4.75 36.81,18.1 57.24,22.63 21.05,4.75 43.22,4.52 63.66,-3.1 38.24,-14.25 61.62,-50.91 56.49,-91.18 -0.91,-7.09 7.99,-13.05 14.33,-10.86 71.72,24.51 134.7,-38.61 110.03,-110.34 -2.11,-6.18 2.49,-11.91 7.92,-13.95 65.84,-24.59 108.76,-97.14 61.7,-159.96 -3.1,-4.15 -1.29,-10.19 1.73,-13.65"
         style="fill:#593217;fill-opacity:1;fill-rule:nonzero;stroke:none"
         id="path300" />
      <path
         d="m 4449.62,3306.41 c -45.34,-36.24 -113.24,-8.52 -130.1,45.05 -43.5,-23.48 -107.08,-23.64 -128.34,26.09 -38.56,-48.94 -114.46,-46 -156.02,-0.87 -22.43,-46.04 -93.81,-69.46 -135.13,-36.65 -11.77,-24.03 -30.36,-42.25 -58.31,-45.46 -27.12,-3.12 -54.16,7.03 -78.48,17.91 -1.61,0.72 -10.18,5.78 -11.83,5.5 0.37,0.06 -1.2,-1.8 -2.56,-2.82 -3.63,-2.72 -6.62,-7.63 -10.1,-10.71 -7.86,-6.98 -17.23,-13.73 -27.37,-16.86 -8.13,-2.51 -15.63,-1.01 -18.42,3.89 -5.23,-11.24 -6.07,-24.14 -1.52,-37.46 8.38,-24.21 27.01,-33.56 43.07,-50.9 0.53,-0.53 1.06,-1.14 1.06,-1.89 0.07,-0.75 -0.38,-1.36 -0.76,-1.96 -2.11,-3.24 -3.47,-6.79 -4.15,-10.48 -1.28,-6.11 -0.75,-12.6 1.28,-18.48 1.74,-4.98 3.7,-11.24 9.51,-12.52 2.79,-0.6 5.65,-0.23 8.44,0.15 17.88,2.64 34.02,4.9 51.89,0.76 v 73.98 c -14.55,7.16 -26.85,18.86 -34.92,33.86 -6.86,12.9 12.67,24.29 19.54,11.47 33.86,-63.35 104.38,-16.9 117.65,34.77 2.19,8.52 12.9,10.71 18.93,5.05 38.92,-36.66 95.41,-25.95 119.62,21.64 3.01,5.96 8.67,6.79 13.42,4.68 2.87,-0.38 5.73,-1.81 7.92,-4.75 15.31,-20.67 40.05,-32.43 65.84,-27.83 18.33,0 34.69,19 46.54,30.24 3.09,2.94 6.78,6.04 11.01,5.36 4.45,-0.68 6.93,-5.28 9.2,-9.21 24.51,-43.74 80.92,-52.79 117.58,-18.25 6.03,5.66 16.74,3.47 18.93,-5.05 13.27,-51.66 83.79,-98.12 117.65,-34.77 6.86,12.82 26.4,1.44 19.53,-11.46 -8.9,-16.67 -22.77,-28.43 -38.69,-35.07 v -75.04 c 0,4.15 34.7,2.56 38.24,2.11 11.01,-1.43 21.65,-4.68 31.23,-10.33 1.81,-1.06 3.84,-2.19 5.8,-1.66 2.11,0.6 3.25,3.01 3.85,5.13 1.51,5.28 1.73,10.93 0.68,16.29 -0.46,2.26 -1.06,4.45 -1.96,6.56 -3.17,7.77 -8.15,15.23 0.75,21.34 23.82,16.5 33.38,42.23 27.28,66.88 -32.35,-15.26 -68.71,10.64 -87.78,41.77"
         style="fill:#412416;fill-opacity:1;fill-rule:nonzero;stroke:none"
         id="path302" />
      <path
         d="m 4118.21,2603.33 c -3.82,0.04 -7.64,0.17 -11.46,0.39 -3.42,0.2 -8.11,2.12 -11.22,2.01 -0.65,-0.02 -1.34,-0.03 -1.74,-0.2 -3.55,-1.57 12.24,-14.91 14.15,-16.33 2.87,-2.13 6.08,-4.12 9.65,-4.27 5.14,-0.2 9.54,3.41 13.4,6.81 3.8,3.35 9.51,7.31 11.16,12.2 -6.69,1 -14.58,-0.63 -21.47,-0.63 -0.82,0 -1.65,0.01 -2.47,0.02"
         style="fill:#f0ccab;fill-opacity:1;fill-rule:nonzero;stroke:none"
         id="path304" />
      <path
         d="m 4275.33,2641.75 c -10.78,12.91 -33.02,18.57 -48.79,21.29 -29.17,5.02 -48.64,-22.28 -66.9,-40.35 -2.09,-2.07 -4.37,-4.81 -3.45,-7.61 1.76,-5.42 11.6,-3.42 15.69,-2.94 20.55,2.39 41.08,4.92 61.59,7.59 10.38,1.35 20.79,2.74 30.96,5.22 7.83,1.91 18.19,8.08 10.9,16.8"
         style="fill:#96c4c9;fill-opacity:1;fill-rule:nonzero;stroke:none"
         id="path306" />
      <path
         d="m 4086.2,2615.69 c -0.21,0.56 -0.49,1.11 -0.85,1.63 -2.49,3.59 -7.93,6.56 -11.07,9.8 -12.18,12.62 -26.1,23.66 -39.32,35.17 -2.51,2.18 -5.07,4.4 -8.13,5.74 -8.2,3.58 -17.62,0.02 -25.76,-3.71 -8.87,-4.06 -17.65,-8.35 -26.3,-12.86 -6.06,-3.16 -12.15,-6.48 -16.99,-11.29 -1.44,-1.42 -2.84,-3.54 -1.87,-5.31 0.58,-1.06 1.8,-1.56 2.93,-1.97 40.81,-14.88 83.65,-24.18 126.95,-27.57 0.67,3.57 1.56,7.27 0.41,10.37"
         style="fill:#96c4c9;fill-opacity:1;fill-rule:nonzero;stroke:none"
         id="path308" />
      <path
         d="m 4510.14,3197.76 c -8.89,-6.11 -3.92,-13.57 -0.75,-21.34 0.91,-2.11 1.51,-4.3 1.96,-6.56 0.6,-3.02 0.76,-6.11 0.6,-9.13 -0.15,-2.41 -0.6,-4.83 -1.28,-7.16 -0.6,-2.12 -1.73,-4.53 -3.84,-5.13 -1.96,-0.53 -4,0.6 -5.81,1.66 -9.58,5.65 -20.21,8.9 -31.22,10.33 -3.55,0.45 -38.24,2.04 -38.24,-2.11 v 75.04 c 15.91,6.64 29.79,18.4 38.69,35.07 6.86,12.9 -12.67,24.28 -19.54,11.46 -33.86,-63.35 -104.38,-16.89 -117.65,34.77 -2.19,8.52 -12.9,10.71 -18.93,5.05 -36.65,-34.54 -93.07,-25.49 -117.58,18.25 -2.26,3.93 -4.75,8.53 -9.2,9.21 -4.22,0.68 -7.92,-2.42 -11.01,-5.36 -11.84,-11.24 -28.21,-30.24 -46.53,-30.24 -25.8,-4.6 -50.54,7.16 -65.85,27.83 -2.18,2.94 -5.05,4.37 -7.91,4.75 -4.76,2.11 -10.41,1.28 -13.43,-4.68 -24.21,-47.59 -80.7,-58.3 -119.61,-21.64 -6.04,5.66 -16.75,3.47 -18.93,-5.05 -13.28,-51.67 -83.79,-98.12 -117.66,-34.77 -6.86,12.82 -26.39,1.43 -19.53,-11.47 8.07,-15 20.36,-26.7 34.92,-33.86 v -73.98 c -17.88,4.14 -34.02,1.88 -51.89,-0.76 -2.79,-0.38 -5.66,-0.75 -8.45,-0.15 -5.81,1.28 -7.77,7.54 -9.5,12.52 -2.04,5.88 -2.57,12.37 -1.28,18.48 0.68,3.69 2.03,7.24 4.14,10.48 0.38,0.6 0.83,1.21 0.76,1.96 0,0.76 -0.53,1.36 -1.06,1.89 -16.06,17.34 -34.69,26.69 -43.06,50.9 -7.92,23.16 0,45.26 20.14,59.06 5.58,3.77 8.29,12.67 2.33,17.72 -26.02,22.02 -31.22,58.07 -15,87.79 17.12,31.3 51.81,46.46 84.84,54.15 6.19,1.36 9.28,8.15 7.92,13.88 -17.5,75.49 51.66,134.02 123.61,107.62 5.43,-2.03 12.75,2.26 13.88,7.92 8.98,45.03 41.71,77.76 86.13,88.39 21.34,5.13 43.82,5.36 65.46,1.89 11.09,-1.81 22.03,-4.53 32.66,-8.22 11.09,-3.85 23.3,-12.82 35.3,-9.96 19.6,4.75 36.8,18.1 57.24,22.63 21.04,4.75 43.21,4.52 63.65,-3.1 38.24,-14.25 61.62,-50.91 56.49,-91.18 -0.9,-7.09 8,-13.05 14.33,-10.86 71.73,24.51 134.7,-38.61 110.04,-110.34 -2.11,-6.18 2.49,-11.91 7.92,-13.95 65.84,-24.59 108.75,-97.14 61.69,-159.96 -3.09,-4.15 -1.28,-10.18 1.73,-13.65 27.31,-31.08 21.95,-72.78 -11.69,-96.09 z m -78.58,-177.69 v 79.12 c 0.98,-0.15 1.96,-0.15 3.01,0.07 29.34,6.72 61.4,-14.63 52.65,-47.21 -6.72,-24.81 -31.9,-34.69 -55.44,-31.98 z m 99.1,43.52 c 0.07,-49.1 -44.65,-79.64 -89.9,-78.66 -1.43,0 -2.64,-0.23 -3.85,-0.61 -1.73,1.51 -3.47,2.95 -5.35,4.45 v 16.3 c 0.07,0 0.15,-0.08 0.22,-0.08 34.62,-4 70.67,18.17 71.95,55.58 1.29,39.37 -36.88,60.94 -72.17,53.4 v 21.57 c 1.13,0 2.26,0.08 3.47,0.38 49.47,13.72 95.63,-20.59 95.63,-72.33 z m -51.89,-197.9 c 0,-106.04 -162.45,-192.32 -362.01,-192.32 -199.64,0 -362.01,86.28 -362.01,192.32 0,30.24 13.8,58.22 33.41,80.62 15.46,17.65 37.18,25.65 36.27,52.12 -0.52,13.57 0,27.3 0,40.87 v 186.37 c 8.6,-1.29 17.5,-1.21 26.4,0.53 34.47,6.56 57.92,33.55 69.99,64.7 44.87,-30.47 103.1,-20.36 134.02,25.04 16.67,-16.96 38.16,-27.98 62.97,-27.98 28.06,-0.07 46.09,12.82 65.09,28.96 31.15,-44.57 88.84,-54.37 133.42,-24.13 -6.94,-4.68 31.75,-46.68 36.5,-50.08 16.89,-12.29 36.96,-17.12 56.11,-15.16 v -244.2 c 0.15,-0.23 0.3,-0.46 0.38,-0.76 0.6,-3.62 5.66,-6.79 7.92,-9.65 0.3,-0.3 0.6,-0.68 0.98,-1.14 38.16,-30.39 60.56,-66.89 60.56,-106.11 z m -198.58,-239.53 -80.85,-112.83 -36.88,30.4 -36.8,31.14 81.98,81.98 c 0.45,0.08 0.9,0.16 1.28,0.16 l 0.91,-0.31 c 0.04,0.09 0.08,0.17 0.12,0.26 0.73,-0.11 1.46,-0.18 2.18,-0.3 24.23,-7.53 47.04,-17.89 68.06,-30.5 z m -137.94,-124.37 h -46.46 l -23.15,19.61 12.74,10.79 c 8,6.63 16.07,13.27 24.06,19.83 3.25,2.72 6.34,5.51 9.51,8.22 0.75,-0.68 1.58,-1.35 2.33,-2.03 0.15,-0.15 0.3,-0.15 0.38,-0.23 0.23,-0.23 0.38,-0.38 0.53,-0.68 l 30.62,-25.19 12.67,-10.71 z m -87.18,151.75 c 20.06,-1.81 40.65,-2.8 61.69,-2.8 22.77,0 45.02,1.21 66.74,3.32 l -49.7,-49.7 c -4.9,-4.9 -9.88,-9.8 -14.78,-14.7 -0.53,0.37 -1.06,0.9 -1.51,1.43 -0.3,0.45 -0.68,0.68 -0.98,0.98 z m -16.3,-140.21 -83.33,116.22 1.5,0.53 c -0.07,0.15 -0.15,0.3 -0.22,0.45 19.76,11.17 41.1,20.29 63.58,27.08 3.54,-0.53 7.16,-0.98 10.78,-1.43 l 81.38,-81.31 -36.73,-31.07 z m -236.96,585.86 V 3020 c -23.31,-2.42 -47.97,7.54 -54.61,32.05 -8.75,32.58 23.31,53.93 52.65,47.21 0.68,-0.15 1.35,-0.07 1.96,-0.07 z m -97.29,-35.6 c 0.07,51.74 46.23,86.05 95.63,72.33 0.6,-0.15 1.13,-0.23 1.66,-0.3 v -21.42 c -34.92,6.86 -72.33,-14.56 -71.05,-53.63 1.21,-37.1 36.73,-59.2 71.05,-55.66 v -16.14 c -1.66,-1.35 -3.25,-2.71 -4.91,-4.07 -0.75,0.15 -1.58,0.23 -2.48,0.23 -45.18,-0.98 -89.9,29.56 -89.9,78.66 z m 839.41,238.63 c 46.84,70.44 1.36,150.53 -68.78,182.59 20.21,78.96 -47.14,148.8 -125.72,132.81 -0.91,39.6 -25.42,75.34 -61.7,92.99 -47.06,22.93 -100.83,9.96 -144.2,-14.48 h -0.07 c -85.76,40.65 -205.14,24.89 -233.35,-76.62 -80.85,21.57 -153.78,-45.25 -142.24,-127.54 -39.45,-11.01 -77.76,-33.48 -93.75,-73.08 -13.04,-32.58 -7.84,-69.54 14.94,-95.33 -42.24,-39.6 -20.07,-99.86 23.45,-132.13 -4.75,-17.12 -0.07,-33.49 14.03,-44.95 -24.14,-15.01 -41.48,-40.43 -44.27,-72.48 -4.9,-58.3 38.46,-102.42 92.39,-110.34 -27.15,-29.41 -42.54,-62.67 -42.54,-97.97 0,-90.8 101.44,-168.71 244.36,-200.09 -100.09,-43.55 -171.55,-132.8 -182.34,-237.97 7.54,0 15.08,0 22.62,0 9.01,80.16 56.44,150.18 125.55,194.3 17.2,-23.9 93.6,-130.47 93.6,-130.47 4.9,4.07 9.88,8.22 14.86,12.29 3.31,2.64 6.56,5.36 9.8,8.07 l 21.42,-18.1 c -13.19,-15.13 -23.08,-38.37 -28.21,-66.08 5.1,0 10.2,0 15.3,0 4.94,24.4 13.91,44.78 25.13,57.18 h 49.62 c 0.23,-0.3 0.38,-0.67 0.61,-0.98 l 0.15,0.15 c 10.86,-12.43 19.53,-32.45 24.32,-56.34 5.14,0 10.28,0 15.42,0 -5.14,27.71 -15.09,50.94 -28.28,66.07 l 21.42,18.1 24.74,-20.36 90.73,126.63 c 65.99,-44.35 111.05,-112.6 119.82,-190.43 7.57,0 15.13,0 22.69,0 -8.8,85.45 -57.57,160.4 -129.31,208.83 l 0.22,0.3 -1.51,0.53 c -15.83,10.56 -32.73,19.84 -50.53,27.68 144.28,31 247.08,109.28 247.08,200.69 0,35.22 -15.39,68.41 -42.46,97.74 54.67,7.25 98.95,51.74 93.97,110.57 -2.04,23.68 -12.07,43.82 -26.85,58.75 0,0.08 0,0.08 0,0.08 4.45,9.5 6.94,18.32 7.31,27 0.31,4.37 0,8.67 -0.75,13.04 -0.68,3.78 -1.66,7.62 -3.09,11.47 36.8,30.84 42.76,79.04 14.4,117.88"
         style="fill:#352018;fill-opacity:1;fill-rule:nonzero;stroke:none"
         id="path310" />
    </g>
  </g>
</svg>
