<?xml version="1.0" encoding="UTF-8" standalone="no"?>

<svg
   width="59.896999mm"
   height="17.882999mm"
   viewBox="0 0 59.896999 17.882999"
   version="1.1"
   id="svg5"
   inkscape:version="1.1.2 (0a00cf5339, 2022-02-04)"
   sodipodi:docname="desenho.svg"
   xmlns:inkscape="http://www.inkscape.org/namespaces/inkscape"
   xmlns:sodipodi="http://sodipodi.sourceforge.net/DTD/sodipodi-0.dtd"
   xmlns="http://www.w3.org/2000/svg"
   xmlns:svg="http://www.w3.org/2000/svg">
  <sodipodi:namedview
     id="namedview7"
     pagecolor="#ffffff"
     bordercolor="#666666"
     borderopacity="1.0"
     inkscape:pageshadow="2"
     inkscape:pageopacity="0.0"
     inkscape:pagecheckerboard="0"
     inkscape:document-units="mm"
     showgrid="false"
     inkscape:zoom="1.526109"
     inkscape:cx="208.04543"
     inkscape:cy="221.47828"
     inkscape:window-width="1920"
     inkscape:window-height="1007"
     inkscape:window-x="0"
     inkscape:window-y="0"
     inkscape:window-maximized="1"
     inkscape:current-layer="layer1" />
  <defs
     id="defs2">
    <clipPath
       id="clip0_57_92">
      <rect
         width="212"
         height="36"
         fill="#ffffff"
         id="rect13"
         x="0"
         y="0" />
    </clipPath>
    <clipPath
       id="clip0_57_89">
      <rect
         width="57"
         height="83"
         fill="#ffffff"
         transform="translate(0,0.5)"
         id="rect32"
         x="0"
         y="0" />
    </clipPath>
  </defs>
  <g
     inkscape:label="Camada 1"
     inkscape:groupmode="layer"
     id="layer1">
    <g
       id="g479"
       transform="matrix(0.2154571,0,0,0.2154571,-3.316858,-4.0635271)">
      <g
         style="fill:#ffffff"
         id="g26"
         transform="matrix(1.0000849,0,0,1.0000849,81.394527,42.340806)">
        <path
           d="m 11.7228,21.8291 h 9.4065 l -3.4656,-7.6936 c -0.1945,-0.4952 -0.4067,-1.0612 -0.6188,-1.6979 -0.2122,-0.6367 -0.4244,-1.3442 -0.6542,-2.1401 -0.1769,0.7429 -0.3714,1.4326 -0.5835,2.0693 -0.2122,0.6368 -0.4244,1.2204 -0.6366,1.7687 l -3.4655,7.6936 z M 26.8934,35.1117 23.0742,26.4276 H 9.68941 L 5.76414,35.1117 H 0 L 16.3553,0.00398254 32.6929,35.1117 Z m 8.9645,0 V 1.33047 H 54.7063 V 5.99971 H 41.3391 v 8.45419 h 13.3672 v 4.8107 H 41.3391 V 30.1771 H 54.7063 V 35.094 H 35.8579 Z M 66.4644,15.745 h 1.0078 c 2.8998,0 4.827,-0.3361 5.7818,-1.0082 0.9548,-0.6721 1.4322,-1.8747 1.4322,-3.5903 0,-1.85711 -0.5127,-3.16591 -1.5383,-3.92643 C 72.1224,6.45955 70.2305,6.07045 67.4722,6.07045 h -1.0078 v 9.69225 z m -0.336,4.2447 v 15.122 H 60.9831 V 1.33047 h 7.6561 c 2.2455,0 3.9783,0.14149 5.2337,0.44216 1.2377,0.28299 2.2986,0.77821 3.165,1.4503 1.0432,0.81357 1.8565,1.87476 2.4223,3.16588 0.5658,1.29111 0.8487,2.70603 0.8487,4.24479 0,2.706 -0.6542,4.8107 -1.9626,6.3494 -1.3084,1.5211 -3.2357,2.4408 -5.7818,2.7591 L 84.1811,35.1117 H 77.9926 L 66.7473,19.9897 Z m 50.1976,-1.6979 c 0,-1.7156 -0.318,-3.325 -0.937,-4.8638 -0.619,-1.5387 -1.521,-2.9006 -2.688,-4.10323 -1.149,-1.185 -2.457,-2.08701 -3.943,-2.72372 -1.503,-0.63672 -3.094,-0.95507 -4.738,-0.95507 -1.662,0 -3.236,0.31835 -4.7389,0.93738 -1.503,0.63671 -2.8291,1.53873 -3.996,2.74141 -1.167,1.18503 -2.0688,2.54683 -2.6699,4.08553 -0.6189,1.5388 -0.9195,3.1659 -0.9195,4.8815 0,1.7156 0.3006,3.3251 0.9195,4.8461 0.6188,1.5211 1.5029,2.8829 2.6699,4.0856 1.1669,1.2027 2.493,2.1224 3.996,2.7414 1.4849,0.6367 3.0769,0.9374 4.7559,0.9374 1.645,0 3.201,-0.3184 4.686,-0.9374 1.485,-0.6367 2.811,-1.5387 3.996,-2.7414 1.167,-1.2027 2.069,-2.5645 2.688,-4.0856 0.618,-1.5387 0.937,-3.1482 0.937,-4.8284 z m 5.711,0 c 0,2.4054 -0.442,4.6693 -1.344,6.8093 -0.902,2.1401 -2.21,4.0502 -3.943,5.7304 -1.732,1.6803 -3.695,2.9537 -5.888,3.8557 -2.174,0.8843 -4.473,1.3442 -6.86,1.3442 -2.44,0 -4.7386,-0.4422 -6.9665,-1.3442 -2.2102,-0.902 -4.1551,-2.1754 -5.8348,-3.838 -1.7151,-1.6802 -3.0236,-3.5726 -3.9253,-5.695 -0.8841,-2.1224 -1.3438,-4.3863 -1.3438,-6.827 0,-2.4231 0.442,-4.6869 1.3438,-6.827 0.8841,-2.14006 2.1925,-4.0502 3.9253,-5.74811 1.7327,-1.68021 3.6777,-2.95364 5.8525,-3.82028 2.1748,-0.86664 4.4908,-1.3088 6.9488,-1.3088 2.422,0 4.721,0.44216 6.896,1.3088 2.175,0.86664 4.12,2.15775 5.835,3.82028 1.715,1.71559 3.023,3.64342 3.943,5.78351 0.901,2.1577 1.343,4.4039 1.343,6.7916 z m 6.295,16.8199 V 1.33047 h 18.848 v 4.66924 h -13.367 v 8.40109 h 13.367 v 4.8107 H 133.813 V 35.094 h -5.481 z m 24.789,0 V 1.33047 h 5.481 V 30.1948 h 12.271 v 4.9169 z m 22.296,0 V 1.33047 h 5.481 V 35.1117 Z m 9.495,0 10.963,-17.6688 -9.69,-16.09474 h 5.764 l 4.863,8.25959 c 0.265,0.42445 0.742,1.32645 1.45,2.67065 l 0.353,0.6721 c 0.248,-0.4775 0.513,-0.9904 0.814,-1.521 0.3,-0.5483 0.654,-1.132 1.025,-1.78638 l 5.145,-8.31265 h 5.623 l -9.866,16.02393 10.626,17.7573 h -6.064 l -5.641,-9.5684 -0.088,-0.1592 c -0.619,-1.1496 -1.185,-2.2285 -1.698,-3.2543 -0.265,0.5306 -0.548,1.0612 -0.866,1.6272 -0.301,0.5659 -0.637,1.1319 -0.99,1.7155 l -5.906,9.6392 z"
           fill="#ffffff"
           id="path9"
           style="fill:#ffffff" />
      </g>
      <g
         style="fill:#ffffff"
         id="g45"
         transform="matrix(1.0003736,0,0,1.0003736,15.394517,17.859655)">
        <path
           d="M 19.1169,36.3321 H 34.3754 L 28.7631,23.8516 c -0.3508,-0.7031 -0.7016,-1.7578 -1.0523,-2.8125 -0.3508,-1.0547 -0.7016,-2.1094 -1.0523,-3.5156 -0.3508,1.2305 -0.5262,2.2851 -0.877,3.3398 -0.3507,1.0547 -0.7015,1.9336 -1.0523,2.8125 L 19.1169,36.1563 Z M 40.6892,29.8282 C 44.8985,20.5118 49.1077,11.1953 53.3169,2.05469 L 42.7938,29.3009 h 14.3816 v 7.5586 H 37.5323 Z M 26.6585,83.969 V 60.7658 L 35.4277,41.254 v 9.3164 H 57 v 7.7344 H 35.4277 V 83.969 Z M 20.3446,70.9611 30.8677,43.715 H 15.6092 L 9.29538,57.7775 H 0 L 26.4831,1 39.4615,28.9493 20.3446,71.1369 Z"
           fill="#ffffff"
           id="path28"
           style="fill:#ffffff" />
      </g>
    </g>
  </g>
</svg>
