<?xml version="1.0" encoding="UTF-8" standalone="no"?>
<!-- Created with Inkscape (http://www.inkscape.org/) -->

<svg
   width="50mm"
   height="50mm"
   viewBox="0 0 50 50"
   version="1.1"
   id="svg5"
   inkscape:version="1.1.2 (0a00cf5339, 2022-02-04)"
   sodipodi:docname="kids.svg"
   xmlns:inkscape="http://www.inkscape.org/namespaces/inkscape"
   xmlns:sodipodi="http://sodipodi.sourceforge.net/DTD/sodipodi-0.dtd"
   xmlns="http://www.w3.org/2000/svg"
   xmlns:svg="http://www.w3.org/2000/svg">
  <sodipodi:namedview
     id="namedview7"
     pagecolor="#ffffff"
     bordercolor="#666666"
     borderopacity="1.0"
     inkscape:pageshadow="2"
     inkscape:pageopacity="0.0"
     inkscape:pagecheckerboard="0"
     inkscape:document-units="mm"
     showgrid="false"
     width="50mm"
     inkscape:zoom="0.57370932"
     inkscape:cx="396.54228"
     inkscape:cy="561.25984"
     inkscape:window-width="1920"
     inkscape:window-height="1007"
     inkscape:window-x="0"
     inkscape:window-y="0"
     inkscape:window-maximized="1"
     inkscape:current-layer="layer1" />
  <defs
     id="defs2" />
  <g
     inkscape:label="Camada 1"
     inkscape:groupmode="layer"
     id="layer1">
    <g
       id="g142"
       transform="matrix(0.94046638,0,0,0.94046638,-40.05866,-127.67099)">
      <rect
         style="fill:#f1ef1d;fill-opacity:1;stroke-width:0.847662"
         id="rect764"
         width="53.165112"
         height="53.165112"
         x="42.594463"
         y="135.75285" />
      <path
         d="m 79.820678,170.34487 c 1.343731,1.07491 2.133953,2.36008 2.133953,3.74614 0,1.97944 -1.604434,3.76485 -4.158545,5.00733 -2.275064,1.10173 -5.297311,1.7773 -8.612717,1.7773 -4.291542,0 -8.096251,-1.13066 -10.413648,-2.86032 -1.484489,-1.10667 -2.357261,-2.46345 -2.357261,-3.92431 0,-1.06962 0.489655,-2.05387 1.181453,-2.84409 0.281869,-0.32456 0.601133,-0.64382 0.9525,-0.89676 0.08502,-0.061 0.172861,-0.12488 0.239536,-0.21026 0.124883,-0.16757 0.08784,-0.41486 0.08784,-0.617 v -4.70959 h -0.02152 v -3.35738 c 0.207433,-0.0695 0.409928,-0.14112 0.609247,-0.21555 0.231423,-0.0825 0.455084,-0.16228 0.6731,-0.24236 0.593373,-0.21555 1.168048,-0.46284 1.721556,-0.74471 -0.449792,0.31644 -0.920397,0.60924 -1.391356,0.89393 -0.364772,0.22331 -0.149225,0.73414 0.186267,0.74754 0.02646,0.008 0.05292,0.0134 0.0822,0.0134 2.990498,0.14887 5.890684,-0.58279 8.415515,-2.06728 0.3302,-0.19438 0.654755,-0.40182 0.971197,-0.62019 -0.404283,0.2794 -0.726369,0.7426 -1.128183,1.04846 -0.204611,0.15699 -0.420159,0.30339 -0.635706,0.44415 -0.189089,0.12241 -0.438856,0.20249 -0.579967,0.38065 -0.130527,0.16756 -0.132997,0.43356 0.0187,0.59055 0.05292,0.0533 0.122413,0.085 0.191558,0.11183 1.375481,0.56656 3.091392,0.28469 4.504267,-0.0134 1.516592,-0.31926 2.977092,-0.88336 4.313061,-1.66546 -0.252941,0.25541 -0.52705,0.49494 -0.822325,0.71049 -0.612069,0.44697 0.388409,0.81915 0.750359,0.91793 0.07973,0.0236 0.513291,0.0903 1.01353,0.15945 0.782461,0.10654 1.726848,0.21555 1.726848,0.16228 v 4.98863 c 0,0.048 0.0081,0.0878 0.02117,0.12771 v 2.75378 c 0.0028,0.0106 0.0081,0.0159 0.01094,0.0268 0.02364,0.13018 0.19932,0.24201 0.28187,0.34043 0.0081,0.0134 0.02117,0.0265 0.03457,0.0399"
         style="fill:#f0ccab;fill-opacity:1;fill-rule:nonzero;stroke:none;stroke-width:0.0352778"
         id="path86" />
      <path
         d="m 61.194716,171.12803 c -1.830917,0 -3.315406,0.63712 -3.315406,1.4224 0,0.78564 1.484489,1.42205 3.315406,1.42205 1.830917,0 3.315053,-0.63641 3.315053,-1.42205 0,-0.78528 -1.484136,-1.4224 -3.315053,-1.4224"
         style="fill:#f9aa75;fill-opacity:1;fill-rule:nonzero;stroke:none;stroke-width:0.0352778"
         id="path88" />
      <path
         d="m 77.158264,171.12803 c -1.830917,0 -3.315053,0.63712 -3.315053,1.4224 0,0.78564 1.484136,1.42205 3.315053,1.42205 1.83127,0 3.315406,-0.63641 3.315406,-1.42205 0,-0.78528 -1.484136,-1.4224 -3.315406,-1.4224"
         style="fill:#f9aa75;fill-opacity:1;fill-rule:nonzero;stroke:none;stroke-width:0.0352778"
         id="path90" />
      <path
         d="m 66.717805,167.46197 c 0,-1.75895 -1.433689,-3.18982 -3.192639,-3.18982 -1.75895,0 -3.189464,1.43087 -3.189464,3.18982 0,1.75895 1.430514,3.19228 3.189464,3.19228 1.75895,0 3.192639,-1.43333 3.192639,-3.19228 z m -3.192639,-3.47028 c 1.913467,0 3.473097,1.55681 3.473097,3.47028 0,1.91311 -1.55963,3.47309 -3.473097,3.47309 -1.913114,0 -3.469923,-1.55998 -3.469923,-3.47309 0,-1.91347 1.556809,-3.47028 3.469923,-3.47028"
         style="fill:#352018;fill-opacity:1;fill-rule:nonzero;stroke:none;stroke-width:0.0352778"
         id="path92" />
      <path
         d="m 63.525166,164.27215 c 1.75895,0 3.192639,1.43087 3.192639,3.18982 0,1.75895 -1.433689,3.19228 -3.192639,3.19228 -1.75895,0 -3.189464,-1.43333 -3.189464,-3.19228 0,-1.75895 1.430514,-3.18982 3.189464,-3.18982"
         style="fill:#ffffff;fill-opacity:1;fill-rule:nonzero;stroke:none;stroke-width:0.0352778"
         id="path94" />
      <path
         d="m 63.525519,165.34071 c -1.171928,0 -2.121606,0.94968 -2.121606,2.12161 0,1.17157 0.949678,2.12161 2.121606,2.12161 1.171575,0 2.121605,-0.95004 2.121605,-2.12161 0,-1.17193 -0.95003,-2.12161 -2.121605,-2.12161"
         style="fill:#593217;fill-opacity:1;fill-rule:nonzero;stroke:none;stroke-width:0.0352778"
         id="path96" />
      <path
         d="m 63.525519,165.70019 c -0.334081,0 -0.605014,0.27094 -0.605014,0.60467 0,0.33443 0.270933,0.60501 0.605014,0.60501 0.33408,0 0.604661,-0.27058 0.604661,-0.60501 0,-0.33373 -0.270581,-0.60467 -0.604661,-0.60467"
         style="fill:#ffffff;fill-opacity:1;fill-rule:nonzero;stroke:none;stroke-width:0.0352778"
         id="path98" />
      <path
         d="m 78.017631,167.46091 c 0,-1.75895 -1.433689,-3.18982 -3.192639,-3.18982 -1.758951,0 -3.189817,1.43087 -3.189817,3.18982 0,1.75895 1.430866,3.19229 3.189817,3.19229 1.75895,0 3.192639,-1.43334 3.192639,-3.19229 z m -3.192639,-3.47028 c 1.913114,0 3.473097,1.55716 3.473097,3.47028 0,1.91311 -1.559983,3.4731 -3.473097,3.4731 -1.913114,0 -3.470276,-1.55999 -3.470276,-3.4731 0,-1.91312 1.557162,-3.47028 3.470276,-3.47028"
         style="fill:#352018;fill-opacity:1;fill-rule:nonzero;stroke:none;stroke-width:0.0352778"
         id="path100" />
      <path
         d="m 74.824992,164.27109 c 1.75895,0 3.192639,1.43087 3.192639,3.18982 0,1.75895 -1.433689,3.19229 -3.192639,3.19229 -1.758951,0 -3.189817,-1.43334 -3.189817,-3.19229 0,-1.75895 1.430866,-3.18982 3.189817,-3.18982"
         style="fill:#ffffff;fill-opacity:1;fill-rule:nonzero;stroke:none;stroke-width:0.0352778"
         id="path102" />
      <path
         d="m 74.824992,165.33966 c -1.171575,0 -2.121253,0.95003 -2.121253,2.1216 0,1.17158 0.949678,2.12161 2.121253,2.12161 1.171927,0 2.121605,-0.95003 2.121605,-2.12161 0,-1.17157 -0.949678,-2.1216 -2.121605,-2.1216"
         style="fill:#593217;fill-opacity:1;fill-rule:nonzero;stroke:none;stroke-width:0.0352778"
         id="path104" />
      <path
         d="m 74.824992,165.69914 c -0.334081,0 -0.604662,0.27093 -0.604662,0.60501 0,0.33408 0.270581,0.60466 0.604662,0.60466 0.33408,0 0.605014,-0.27058 0.605014,-0.60466 0,-0.33408 -0.270934,-0.60501 -0.605014,-0.60501"
         style="fill:#ffffff;fill-opacity:1;fill-rule:nonzero;stroke:none;stroke-width:0.0352778"
         id="path106" />
      <path
         d="m 68.931486,170.71811 c 0.408869,-0.58173 0.396875,-1.33597 0.322439,-2.08033 -0.03387,-0.34044 -0.564445,-0.29881 -0.530578,0.0427 0.1016,1.0153 0.0056,1.64818 -0.866423,2.27718 -0.390172,0.28117 -0.815975,0.48049 -0.909461,1.00295 -0.180269,1.00577 1.097139,1.61925 1.865137,1.86408 0.325966,0.10407 0.422275,-0.41981 0.09984,-0.52282 -0.33267,-0.10583 -0.772937,-0.27905 -1.03117,-0.53975 -0.296686,-0.29915 -0.319617,-0.69462 -0.0635,-1.03646 0.180622,-0.2413 0.443442,-0.40393 0.687917,-0.58067 0.176742,-0.12771 0.316442,-0.27094 0.425803,-0.42686"
         style="fill:#352018;fill-opacity:1;fill-rule:nonzero;stroke:none;stroke-width:0.0352778"
         id="path108" />
      <path
         d="m 72.082144,175.65029 c -0.555625,1.05834 -1.797755,1.11302 -2.854325,1.13489 -0.0194,3.5e-4 -0.03387,0.008 -0.05115,0.0116 -0.01729,-0.004 -0.0321,-0.0113 -0.0515,-0.0116 -1.05657,-0.0219 -2.298348,-0.0765 -2.854326,-1.13489 -0.159102,-0.30339 -0.618772,-0.0346 -0.459316,0.26847 0.647347,1.2326 2.06375,1.3723 3.313642,1.39876 0.0194,3.5e-4 0.03422,-0.007 0.0515,-0.01 0.01729,0.003 0.03175,0.01 0.05115,0.01 1.250245,-0.0265 2.666647,-0.16616 3.313995,-1.39876 0.159102,-0.30304 -0.300214,-0.57186 -0.45967,-0.26847"
         style="fill:#352018;fill-opacity:1;fill-rule:nonzero;stroke:none;stroke-width:0.0352778"
         id="path110" />
      <path
         d="m 78.929914,188.90098 c -0.718608,-3.39584 -2.885722,-6.19125 -5.747456,-7.56497 -0.01587,0.002 -0.0321,0.005 -0.04798,0.008 -0.124883,1.7907 -1.848908,3.21698 -3.958872,3.21698 -2.109964,0 -3.836811,-1.42628 -3.959225,-3.21945 -0.01587,-0.003 -0.02928,-0.005 -0.04233,-0.005 -2.869142,1.37407 -5.039783,4.17619 -5.754511,7.5812 6.503106,-0.001 13.006917,-0.0194 19.510376,-0.0162"
         style="fill:#b41d23;fill-opacity:1;fill-rule:nonzero;stroke:none;stroke-width:0.0352778"
         id="path112" />
      <path
         d="m 83.88362,167.92658 c 0.220839,1.46861 -0.817033,2.70298 -2.194984,3.22721 -0.0028,0 -0.0056,0 -0.0056,0.002 -0.135467,-0.17816 -0.276578,-0.35102 -0.42545,-0.51612 -0.0321,-0.0346 -0.06668,-0.0716 -0.09843,-0.10618 -0.02681,-0.0268 -0.08784,-0.0773 -0.1651,-0.13865 1.074914,-0.36688 2.2987,-1.20508 1.976967,-2.5594 -0.287514,-1.1945 -1.724025,-1.57233 -2.700514,-1.12289 v -0.65687 c 0.01058,-0.003 0.02117,-0.005 0.03175,-0.0109 1.599141,-0.75283 3.339042,0.23954 3.5814,1.88137"
         style="fill:#f0ccab;fill-opacity:1;fill-rule:nonzero;stroke:none;stroke-width:0.0352778"
         id="path114" />
      <path
         d="m 80.27047,167.34626 c 0.721078,-0.49213 2.277533,-0.24483 2.202744,0.93133 -0.06632,1.05092 -1.165225,1.48202 -1.981905,1.68698 -0.0053,0 -0.0081,0.005 -0.01341,0.005 -0.109008,-0.096 -0.186267,-0.1785 -0.186267,-0.22083 -0.0081,-0.21837 -0.01587,-1.21321 -0.02117,-2.40277"
         style="fill:#c39d81;fill-opacity:1;fill-rule:nonzero;stroke:none;stroke-width:0.0352778"
         id="path116" />
      <path
         d="m 72.591908,181.43162 c -0.175683,1.45556 -1.636536,2.59679 -3.4163,2.59679 -1.780117,0 -3.240617,-1.14123 -3.413478,-2.59926 1.093258,0.15945 2.240139,0.24482 3.421239,0.24482 1.176161,0 2.317397,-0.0854 3.408539,-0.24235"
         style="fill:#f0ccab;fill-opacity:1;fill-rule:nonzero;stroke:none;stroke-width:0.0352778"
         id="path118" />
      <path
         d="m 82.224859,161.63196 c -0.0078,-0.16545 -0.01023,-0.33126 -0.0095,-0.49671 -0.464256,0.16969 -0.972256,0.25647 -1.410053,0.32068 -0.965906,0.14075 -1.971675,0.11147 -2.945342,-0.0321 -0.284692,-0.0427 -0.566914,-0.0931 -0.843492,-0.15169 0.654403,-0.58279 1.205089,-1.26365 1.636184,-2.04329 0.162277,-0.29528 -0.09031,-0.57221 -0.385586,-0.61207 -0.340784,-0.048 -0.620184,0.26882 -0.875595,0.44697 -0.324556,0.22613 -0.657225,0.43921 -0.997656,0.63606 -0.6731,0.39123 -1.378302,0.72354 -2.107141,0.99483 -1.452739,0.54293 -2.998612,0.83291 -4.549776,0.86501 -0.263172,0.005 -0.531989,0.002 -0.797983,-0.008 0.178153,0 0.59055,-0.42051 0.726369,-0.53199 0.244475,-0.19967 0.47872,-0.40993 0.702381,-0.63324 0.433564,-0.43638 0.784931,-0.92075 1.146528,-1.41005 0.132997,-0.18098 0.255411,-0.38347 0.27693,-0.60678 0.02364,-0.22366 -0.07197,-0.47343 -0.27693,-0.56691 -0.348545,-0.16193 -0.681214,0.13582 -0.930981,0.34078 -0.298097,0.24483 -0.606778,0.47625 -0.923572,0.69709 -0.300567,0.20743 -0.606425,0.40428 -0.923219,0.59055 -0.340431,0.19967 -0.691445,0.38594 -1.050926,0.5588 -1.370189,0.65723 -2.841272,1.08832 -4.34728,1.28235 -0.441678,0.0586 -0.886178,0.0931 -1.330325,0.10901 0.194027,-0.005 0.603955,-0.42545 0.758119,-0.5454 0.268817,-0.21272 0.52952,-0.43356 0.771525,-0.67557 0.449792,-0.4445 0.875595,-0.93415 1.05657,-1.55398 0.09843,-0.33797 -0.189089,-0.88054 -0.579967,-0.59585 -0.588081,0.42545 -1.08585,0.94968 -1.70815,1.34373 -0.657225,0.41769 -1.357136,0.76624 -2.075392,1.06151 -0.332669,0.13829 -0.6731,0.27129 -1.019175,0.39617 -0.975783,0.35454 -1.996017,0.63818 -3.003903,0.7934 0.0088,0.2607 0.01799,0.52246 0.01693,0.78352 0.618773,-0.085 1.230136,-0.22013 1.829859,-0.40605 v 0.0378 c 0.259644,-0.0991 0.53093,-0.15946 0.797983,-0.23389 v -0.0646 c 0.207433,-0.0691 0.409928,-0.14111 0.609247,-0.21555 0.231423,-0.0825 0.455084,-0.16228 0.6731,-0.242 0.593373,-0.21555 1.168048,-0.4632 1.721556,-0.74507 -0.449792,0.31644 -0.920397,0.60925 -1.391356,0.89394 -0.364772,0.22331 -0.149225,0.73413 0.186267,0.74754 0.02646,0.008 0.05292,0.0134 0.0822,0.0134 2.990498,0.14887 5.890684,-0.58279 8.415515,-2.06728 0.3302,-0.19438 0.654755,-0.40181 0.971197,-0.61983 -0.404283,0.27905 -0.726369,0.74225 -1.128183,1.04811 -0.204611,0.15698 -0.420159,0.30338 -0.635706,0.4445 -0.189089,0.12241 -0.438856,0.20214 -0.579967,0.38029 -0.130527,0.16757 -0.132997,0.43356 0.0187,0.59055 0.05292,0.0533 0.122413,0.0854 0.191558,0.11183 1.375481,0.56656 3.091392,0.28469 4.504267,-0.0134 1.516592,-0.31926 2.977092,-0.883 4.313061,-1.66546 -0.252941,0.25541 -0.52705,0.49495 -0.822325,0.7105 -0.612069,0.44696 0.388409,0.8195 0.750359,0.91792 0.07973,0.024 0.513291,0.0903 1.013883,0.15946 1.286581,0.17533 2.589742,0.22331 3.866797,-0.0709 0.193675,-0.0448 0.39617,-0.0995 0.59937,-0.1651 0.0021,-0.10089 0.0063,-0.20179 0.01305,-0.30339"
         style="fill:#c39d81;fill-opacity:1;fill-rule:nonzero;stroke:none;stroke-width:0.0352778"
         id="path120" />
      <path
         d="m 58.091329,169.36591 c 0,0.0533 0.0028,0.10619 -0.0134,0.15699 -0.01588,0.0533 -0.05045,0.0984 -0.0822,0.14358 -0.06668,0.0931 -0.146403,0.18344 -0.228953,0.27128 -0.806097,-0.21272 -1.82245,-0.64911 -1.889125,-1.66017 -0.07444,-1.17334 1.474258,-1.42064 2.197805,-0.93663 0,0.32491 0,0.64665 0.0025,0.96873 0,0.35102 0.0081,0.70238 0.0134,1.05622"
         style="fill:#c39d81;fill-opacity:1;fill-rule:nonzero;stroke:none;stroke-width:0.0352778"
         id="path122" />
      <path
         d="m 58.054288,166.04803 v 0.65194 c -0.97402,-0.42863 -2.389364,-0.048 -2.671234,1.13594 -0.319616,1.33844 0.875242,2.17629 1.942042,2.54635 -0.255411,0.2473 -0.502708,0.49495 -0.670278,0.76624 -1.373011,-0.52423 -2.405239,-1.75613 -2.187222,-3.22192 0.244828,-1.64183 1.984728,-2.6342 3.58387,-1.88137 0,0 0.0028,0 0.0028,0.003"
         style="fill:#f0ccab;fill-opacity:1;fill-rule:nonzero;stroke:none;stroke-width:0.0352778"
         id="path124" />
      <path
         d="m 75.441294,188.90204 v -2.40983 h -5.017911 v 2.41371 c 1.67252,-0.002 3.345392,-0.003 5.017911,-0.004"
         style="fill:#ee272e;fill-opacity:1;fill-rule:nonzero;stroke:none;stroke-width:0.0352778"
         id="path126" />
      <path
         d="m 83.335403,157.82126 c 0.154164,0.66004 0.417689,1.53811 0.05856,2.16605 -0.02399,0.0399 -0.04798,0.0797 -0.07444,0.11677 -0.537633,0.75565 -1.660172,0.96061 -2.514247,1.0855 -0.965906,0.14111 -1.971675,0.11183 -2.945342,-0.0318 -0.284692,-0.0427 -0.566914,-0.0931 -0.843492,-0.1517 0.654403,-0.58279 1.205089,-1.26365 1.636184,-2.04329 0.162277,-0.29527 -0.09031,-0.5722 -0.385586,-0.61207 -0.340784,-0.048 -0.620184,0.26882 -0.875595,0.44697 -0.324556,0.22613 -0.657225,0.43921 -0.997656,0.63606 -0.6731,0.39088 -1.378302,0.72355 -2.107141,0.99484 -1.452739,0.54292 -2.998612,0.8329 -4.549776,0.86501 -0.263172,0.005 -0.531989,0.002 -0.797983,-0.008 0.178153,0 0.59055,-0.42051 0.726369,-0.53234 0.244475,-0.19932 0.47872,-0.40957 0.702381,-0.63288 0.433564,-0.43639 0.784578,-0.92075 1.146528,-1.41041 0.132997,-0.18062 0.255411,-0.38311 0.27693,-0.60642 0.02364,-0.22366 -0.07197,-0.47378 -0.27693,-0.56692 -0.348545,-0.16227 -0.681214,0.13582 -0.930981,0.34079 -0.298097,0.24447 -0.606778,0.47625 -0.923572,0.69709 -0.300567,0.20743 -0.606425,0.40428 -0.923219,0.59055 -0.340431,0.19967 -0.691445,0.38593 -1.050926,0.5588 -1.370189,0.65722 -2.841272,1.08796 -4.34728,1.28234 -0.441678,0.0586 -0.886178,0.0931 -1.330325,0.10901 0.194027,-0.005 0.603955,-0.4258 0.758119,-0.54539 0.268817,-0.21273 0.52952,-0.43357 0.771878,-0.67593 0.449439,-0.44414 0.875242,-0.9338 1.056217,-1.55363 0.09843,-0.33796 -0.189089,-0.88053 -0.579967,-0.59619 -0.588081,0.4258 -1.08585,0.95003 -1.70815,1.34373 -0.657225,0.41769 -1.357136,0.76623 -2.075392,1.06151 -0.332669,0.13864 -0.6731,0.27164 -1.019175,0.39652 -1.040342,0.37782 -2.131131,0.68121 -3.203222,0.82762 -0.09596,0.013 -1.104195,0.21272 -1.122892,0.0557 -0.425803,-3.44558 0.955322,-6.92573 3.512256,-9.26676 1.641475,-1.50072 3.703461,-2.47721 5.871986,-2.94005 1.449917,-0.30868 2.990497,-0.40993 4.522964,-0.40993 1.0668,0 2.131131,0.048 3.158067,0.11183 2.261659,0.14111 4.512381,0.77964 6.436078,1.99284 0.582789,0.36442 1.130653,0.78211 1.636184,1.24531 1.090789,0.99765 1.976966,2.21615 2.594328,3.55988 0.308327,0.6731 0.553155,1.37548 0.718255,2.09903"
         style="fill:#b8571e;fill-opacity:1;fill-rule:nonzero;stroke:none;stroke-width:0.0352778"
         id="path128" />
      <path
         d="m 55.992654,158.35748 c 0.519289,-0.1136 1.0287,-0.26459 1.531056,-0.4378 1.060803,-0.36583 2.105731,-0.80398 3.118908,-1.28482 1.816806,-0.86254 3.57117,-1.82633 5.447595,-2.55799 0.04586,-0.0183 0.09737,-0.0363 0.143581,-0.0191 0.07973,0.0289 0.09137,0.13547 0.08714,0.22014 -0.02646,0.55068 -0.1397,1.09149 -0.271286,1.62524 -0.09913,0.40252 -0.299861,0.93063 -0.100189,1.33315 0.243064,0.49036 0.971197,0.34502 1.402292,0.26388 1.43263,-0.27023 2.742494,-0.98707 4.012494,-1.67146 0.85725,-0.46144 1.750131,-1.1811 2.740026,-1.29329 0.07267,-0.008 0.125588,0.0653 0.129116,0.12912 0.0381,0.65617 -0.2413,1.29081 -0.360539,1.92687 -0.07902,0.42192 -0.163689,0.92957 0.156281,1.26965 0.373944,0.39652 0.940505,0.2159 1.375128,0.0208 0.588786,-0.26423 1.158875,-0.64276 1.682044,-1.01882 0.615598,-0.44309 1.247423,-1.02588 2.030237,-1.12854 0.03986,-0.005 0.08325,-0.008 0.117475,0.0127 0.03739,0.0233 0.05327,0.0684 0.06562,0.11042 0.191911,0.6597 0.0829,1.3836 0.390525,2.01295 0.272345,0.55669 0.803275,0.97085 1.417814,1.07068 0.818092,0.13335 1.622073,-0.15945 2.368198,-0.51117 -0.0448,-0.21343 -0.09666,-0.42016 -0.140759,-0.60889 -0.1651,-0.72355 -0.409575,-1.42593 -0.718255,-2.09903 -0.617362,-1.34373 -1.503539,-2.56223 -2.594328,-3.55988 -0.505531,-0.4632 -1.053395,-0.88089 -1.636184,-1.24531 -1.923697,-1.2132 -4.174419,-1.85173 -6.436078,-1.99284 -1.026936,-0.0639 -2.091267,-0.11183 -3.158067,-0.11183 -1.532467,0 -3.073047,0.10125 -4.522964,0.40993 -2.168525,0.46284 -4.230511,1.43933 -5.871986,2.94005 -1.834092,1.67887 -3.057878,3.94476 -3.449462,6.3627 0.347134,-0.0579 0.698853,-0.0917 1.044575,-0.16757"
         style="fill:#cc652c;fill-opacity:1;fill-rule:nonzero;stroke:none;stroke-width:0.0352778"
         id="path130" />
      <path
         d="m 81.821634,161.79636 v 3.23532 c -0.508353,-0.0557 -1.037873,-0.005 -1.551164,0.17039 v -3.16089 c 0.531989,-0.0374 1.056216,-0.1143 1.551164,-0.24482"
         style="fill:#9a431d;fill-opacity:1;fill-rule:nonzero;stroke:none;stroke-width:0.0352778"
         id="path132" />
      <path
         d="m 58.054288,161.71663 v 3.47451 c -0.500239,-0.16475 -1.013884,-0.21273 -1.508831,-0.15946 v -2.93476 c 0.503061,-0.0931 1.011061,-0.22613 1.508831,-0.38029"
         style="fill:#9a431d;fill-opacity:1;fill-rule:nonzero;stroke:none;stroke-width:0.0352778"
         id="path134" />
      <path
         d="m 64.598316,162.32588 c -1.365956,-0.3997 -2.731911,-0.36266 -4.072114,0.11994 -0.322439,0.11606 -0.110772,0.60466 0.210961,0.4886 1.194506,-0.43004 2.438753,-0.47308 3.658658,-0.11642 0.325967,0.0952 0.530931,-0.39617 0.202495,-0.49212"
         style="fill:#352018;fill-opacity:1;fill-rule:nonzero;stroke:none;stroke-width:0.0352778"
         id="path136" />
      <path
         d="m 73.83545,162.32588 c 1.365955,-0.3997 2.731911,-0.36266 4.072114,0.11994 0.322439,0.11606 0.111125,0.60466 -0.210608,0.4886 -1.194859,-0.43004 -2.439106,-0.47308 -3.659012,-0.11642 -0.325614,0.0952 -0.53093,-0.39617 -0.202494,-0.49212"
         style="fill:#352018;fill-opacity:1;fill-rule:nonzero;stroke:none;stroke-width:0.0352778"
         id="path138" />
      <path
         d="m 65.357494,180.9529 c -0.710495,0.073 -1.457678,0.24694 -1.825273,0.71049 -0.04762,0.061 -0.06632,0.15134 -0.02117,0.21519 0.02399,0.0346 0.06138,0.0561 0.09842,0.0748 0.703439,0.37995 1.440392,0.6477 2.196747,0.83468 -0.322439,-0.55104 -0.503061,-1.26542 -0.448733,-1.83515"
         style="fill:#8e191e;fill-opacity:1;fill-rule:nonzero;stroke:none;stroke-width:0.0352778"
         id="path140" />
      <path
         d="m 72.176336,182.86389 c 0.09984,-0.14181 0.213783,-0.26493 0.280458,-0.44838 0.08149,-0.22472 0.126647,-0.46002 0.185914,-0.69109 0.03563,-0.13864 0.09419,-0.48789 0.233892,-0.65264 0.0025,-0.0148 0.0042,-0.0314 0.0071,-0.0444 -1.10878,-0.0586 -2.22885,-0.0332 -3.338336,-0.048 -1.024114,-0.0159 -2.046111,-0.12241 -3.073047,-0.0878 -0.269875,0.01 -0.613128,0.0176 -0.973314,0.0483 0.05786,0.37077 0.13088,0.72778 0.268816,1.08162 0.12312,0.31538 0.293864,0.58702 0.461786,0.86642 0.88512,0.18027 1.795639,0.25047 2.714626,0.2413 1.077383,-0.0106 2.155119,-0.0984 3.219097,-0.26352 0.0046,-3.6e-4 0.0088,-0.001 0.01305,-0.002"
         style="fill:#c39d81;fill-opacity:1;fill-rule:nonzero;stroke:none;stroke-width:0.0352778"
         id="path142" />
      <path
         d="m 75.084636,181.75899 c -0.164747,-0.37535 -1.681339,-0.7052 -1.960739,-0.72107 -0.02117,-0.001 -0.04269,-0.002 -0.06421,-0.003 3.53e-4,0.0183 -0.0014,0.037 -0.0042,0.0561 0.01729,0.17287 -0.02999,0.37007 -0.06456,0.52247 -0.05009,0.22084 -0.124884,0.4325 -0.216606,0.63747 -3.53e-4,0.002 -7.05e-4,0.004 -0.0011,0.006 -0.03634,0.15063 -0.08819,0.35595 -0.17392,0.53445 0.780698,-0.14534 1.540934,-0.36583 2.259189,-0.71614 0.213078,-0.10618 0.271639,-0.21272 0.226131,-0.31644"
         style="fill:#8e191e;fill-opacity:1;fill-rule:nonzero;stroke:none;stroke-width:0.0352778"
         id="path144" />
      <path
         d="m 54.467596,167.92622 c 0.244828,-1.64147 1.984728,-2.63384 3.58387,-1.88101 0,0 0.0028,0 0.0028,0.003 v 0.65194 c -0.97402,-0.42863 -2.389364,-0.048 -2.671234,1.13594 -0.319616,1.33844 0.875242,2.17629 1.942042,2.54635 -0.255411,0.2473 -0.502708,0.49495 -0.670278,0.76624 -1.373011,-0.52423 -2.405239,-1.75613 -2.187222,-3.22228 z m 0.417689,-6.49711 c -0.425803,-3.44558 0.955322,-6.92573 3.512256,-9.26676 1.641475,-1.50072 3.703461,-2.47721 5.871986,-2.94005 1.449917,-0.30868 2.990497,-0.40993 4.522964,-0.40993 1.0668,0 2.131131,0.048 3.158067,0.11183 2.261659,0.14111 4.512381,0.77964 6.436078,1.99284 0.582789,0.36442 1.130653,0.78211 1.636184,1.24531 1.090789,0.99765 1.976966,2.21615 2.594328,3.55988 0.30868,0.6731 0.553155,1.37548 0.718255,2.09903 0.154164,0.66004 0.417689,1.53775 0.05856,2.16605 -0.02399,0.0399 -0.04798,0.0797 -0.07444,0.11677 -0.537633,0.75565 -1.660172,0.96061 -2.514247,1.0855 -0.965906,0.14111 -1.971675,0.11183 -2.945342,-0.0318 -0.284692,-0.0427 -0.566914,-0.0931 -0.843492,-0.1517 0.654403,-0.58279 1.205089,-1.26365 1.636184,-2.04329 0.162277,-0.29527 -0.09031,-0.5722 -0.385586,-0.61207 -0.340784,-0.048 -0.620184,0.26882 -0.875595,0.44697 -0.324556,0.22613 -0.657225,0.43921 -0.997656,0.63606 -0.6731,0.39088 -1.378302,0.72355 -2.107141,0.99484 -1.452739,0.54292 -2.998612,0.8329 -4.549776,0.86501 -0.263172,0.005 -0.531989,0.002 -0.797983,-0.008 0.178153,0 0.59055,-0.42051 0.726369,-0.53199 0.244475,-0.19967 0.47872,-0.40992 0.702381,-0.63323 0.433564,-0.43639 0.784931,-0.92075 1.146528,-1.41041 0.132997,-0.18062 0.255411,-0.38311 0.27693,-0.60642 0.02364,-0.22366 -0.07197,-0.47378 -0.27693,-0.56692 -0.348545,-0.16227 -0.681214,0.13582 -0.930981,0.34079 -0.298097,0.24447 -0.606778,0.47625 -0.923572,0.69709 -0.300567,0.20743 -0.606425,0.40428 -0.923219,0.59055 -0.340431,0.19967 -0.691445,0.38593 -1.050926,0.5588 -1.370189,0.65722 -2.841272,1.08796 -4.34728,1.28234 -0.441678,0.0586 -0.886178,0.0931 -1.330325,0.10901 0.194027,-0.005 0.603955,-0.4258 0.758119,-0.54539 0.268817,-0.21273 0.52952,-0.43357 0.771525,-0.67593 0.449792,-0.44414 0.875595,-0.9338 1.05657,-1.55363 0.09843,-0.33796 -0.189089,-0.88053 -0.579967,-0.59619 -0.588081,0.4258 -1.08585,0.95003 -1.70815,1.34373 -0.657225,0.41769 -1.357136,0.76623 -2.075392,1.06151 -0.332669,0.13864 -0.6731,0.27164 -1.019175,0.39652 -1.040342,0.37782 -2.131131,0.68121 -3.203222,0.82762 -0.09596,0.013 -1.104195,0.21272 -1.122892,0.0557 z m 25.385185,3.77296 v -3.16089 c 0.531989,-0.0374 1.056216,-0.1143 1.551164,-0.24482 v 3.23532 c -0.508353,-0.0557 -1.037873,-0.005 -1.551164,0.17039 z m 3.61315,2.72415 c 0.220839,1.46897 -0.817033,2.70334 -2.194984,3.22757 -0.0028,0 -0.0056,0 -0.0056,0.002 -0.135467,-0.17816 -0.276578,-0.35102 -0.42545,-0.51612 -0.0321,-0.0346 -0.06668,-0.0716 -0.09843,-0.10618 -0.02681,-0.0268 -0.08784,-0.0773 -0.1651,-0.13865 1.074914,-0.36688 2.2987,-1.20508 1.976967,-2.5594 -0.287514,-1.1945 -1.724025,-1.57233 -2.700514,-1.12289 v -0.65687 c 0.01058,-0.003 0.02117,-0.005 0.03175,-0.0109 1.599141,-0.75283 3.339042,0.23954 3.5814,1.88101 z m -3.61315,-0.57996 c 0.721078,-0.49213 2.277533,-0.24483 2.202744,0.93133 -0.06632,1.05092 -1.165225,1.48202 -1.981905,1.68698 -0.0053,0 -0.0081,0.005 -0.01341,0.005 -0.109008,-0.096 -0.186267,-0.1785 -0.186267,-0.22083 -0.0081,-0.21837 -0.01587,-1.21321 -0.02117,-2.40277 z m -22.216182,-2.15512 c -0.500239,-0.16475 -1.013884,-0.21273 -1.508831,-0.15946 v -2.93476 c 0.503061,-0.0931 1.011061,-0.22613 1.508831,-0.38029 z m 0.02117,2.14982 c 0,0.32491 0,0.64665 0.0025,0.96873 0,0.35102 0.0081,0.70238 0.0134,1.05622 0,0.0533 0.0028,0.10619 -0.0134,0.15699 -0.01588,0.0529 -0.05045,0.0984 -0.0822,0.14358 -0.06668,0.0931 -0.146403,0.18344 -0.228953,0.27128 -0.806097,-0.21272 -1.82245,-0.64911 -1.889125,-1.66017 -0.07444,-1.17334 1.474258,-1.42064 2.197805,-0.93663 z m 19.720632,11.75738 c -2.275064,1.10138 -5.297311,1.7773 -8.612717,1.7773 -4.291542,0 -8.096251,-1.13066 -10.413648,-2.85997 -1.484489,-1.10702 -2.357261,-2.4638 -2.357261,-3.92466 0,-1.06962 0.489655,-2.05387 1.181453,-2.84409 0.281869,-0.32456 0.601133,-0.64382 0.9525,-0.89676 0.08502,-0.061 0.172861,-0.12488 0.239536,-0.21026 0.124883,-0.16757 0.08784,-0.41486 0.08784,-0.617 v -4.70959 h -0.02152 v -3.35738 c 0.207433,-0.0695 0.409928,-0.14112 0.609247,-0.21555 0.231423,-0.0825 0.455084,-0.16228 0.6731,-0.24236 0.593373,-0.21555 1.168048,-0.46284 1.721556,-0.74471 -0.449792,0.31644 -0.920397,0.60924 -1.391356,0.89393 -0.364772,0.22331 -0.149225,0.73414 0.186267,0.74754 0.02646,0.008 0.05292,0.0134 0.0822,0.0134 2.990498,0.14887 5.890684,-0.58279 8.415515,-2.06728 0.3302,-0.19438 0.654755,-0.40182 0.971197,-0.62019 -0.404283,0.2794 -0.726369,0.7426 -1.128183,1.04846 -0.204611,0.15699 -0.420159,0.30339 -0.635706,0.44415 -0.189089,0.12241 -0.438856,0.20249 -0.579967,0.38065 -0.130527,0.16756 -0.132997,0.43356 0.0187,0.59055 0.05292,0.0533 0.122413,0.085 0.191558,0.11183 1.375481,0.56656 3.091392,0.28469 4.504267,-0.0134 1.516592,-0.31926 2.977092,-0.88336 4.313061,-1.66546 -0.252941,0.25541 -0.52705,0.49494 -0.822325,0.71049 -0.612069,0.44697 0.388409,0.81915 0.750359,0.91793 0.07973,0.0236 0.513291,0.0903 1.01353,0.15945 0.782461,0.10654 1.726848,0.21555 1.726848,0.16228 v 4.98863 c 0,0.048 0.0081,0.0878 0.02117,0.12771 v 2.75378 c 0.0028,0.0106 0.0081,0.0159 0.01094,0.0268 0.02364,0.13018 0.19932,0.24201 0.28187,0.34043 0.0081,0.0134 0.02117,0.0265 0.03457,0.0399 1.343731,1.07491 2.133953,2.36008 2.133953,3.74614 0,1.97944 -1.604434,3.76485 -4.158545,5.00733 z m -8.620478,4.93007 c -1.780117,0 -3.240617,-1.14123 -3.413478,-2.59926 1.093258,0.15945 2.240139,0.24482 3.421239,0.24482 1.176161,0 2.317397,-0.0854 3.408539,-0.24235 -0.175683,1.45556 -1.636536,2.59679 -3.4163,2.59679 z M 56.234307,171.83218 c -0.380647,0.69427 -0.619831,1.46332 -0.619831,2.25883 0,1.67111 0.973667,3.21945 2.623256,4.47252 1.452739,1.10949 3.429706,1.98755 5.723114,2.52483 -1.780116,1.07139 -3.250847,2.67512 -4.238625,4.60869 -0.0046,0.008 -0.0095,0.0159 -0.01235,0.024 -0.50165,0.98778 -0.873831,2.06269 -1.098197,3.19687 h 0.1524 c 0.218722,0 0.437444,-3.5e-4 0.656166,-7e-4 0.359128,-1.70639 1.084087,-3.26143 2.079273,-4.56142 v 4.55965 c 0.0889,0 0.177447,0 0.266347,0 V 184.021 c 0.0018,-0.002 0.0035,-0.005 0.0053,-0.007 l 1.343025,-1.34302 c 0.632883,-0.52882 1.321505,-0.98178 2.059869,-1.33527 0.01305,0 0.02646,0.002 0.04233,0.005 0.122414,1.79317 1.849261,3.21945 3.959225,3.21945 2.109964,0 3.833989,-1.42628 3.958872,-3.21698 0.01588,-0.002 0.0321,-0.005 0.04798,-0.008 1.248834,0.59937 2.361495,1.47391 3.283303,2.54635 v 5.01933 c 0.08855,0 0.177447,0 0.265995,-3.6e-4 v -4.69935 c 1.053747,1.3268 1.82245,2.93123 2.197805,4.699 0.271286,0 0.542573,-3.5e-4 0.813859,-3.5e-4 -0.665339,-3.36056 -2.659239,-6.18984 -5.350228,-7.80945 1.37795,-0.32208 2.641952,-0.76623 3.748616,-1.31162 2.825751,-1.38889 4.610806,-3.42442 4.610806,-5.68855 0,-0.79798 -0.239536,-1.56986 -0.627944,-2.2613 1.843969,-0.79305 3.094567,-2.58092 2.471914,-4.56036 -0.316795,-1.01106 -1.0668,-1.72438 -1.976967,-2.05422 0,0 0,-3.67948 0,-3.68477 0.0028,-0.0293 0.627945,-0.31397 0.702381,-0.36195 0.364419,-0.23671 0.70238,-0.57185 0.891469,-0.97896 0.218017,-0.4579 0.159456,-0.87559 0.100895,-1.3596 -0.04516,-0.37007 -0.109009,-0.73696 -0.188737,-1.10173 -0.159808,-0.72637 -0.388408,-1.43651 -0.683683,-2.11772 -0.596194,-1.38078 -1.458031,-2.64478 -2.527653,-3.70099 l -0.02928,-0.0293 c -1.609725,-1.58044 -3.650545,-2.67123 -5.82154,-3.25402 -2.040819,-0.54786 -4.166658,-0.54786 -6.2738,-0.53199 -0.465667,0.002 -0.930981,0.005 -1.394178,0.005 -2.218972,-0.005 -4.464403,0.46285 -6.467828,1.42099 -1.250597,0.59831 -2.402417,1.38854 -3.392311,2.35973 -2.101851,2.06481 -3.384198,4.90644 -3.506612,7.85143 -0.0187,0.41522 -0.0134,0.83008 0.01588,1.2453 0.02399,0.35913 -0.02646,0.87278 0.289984,1.10667 0.07197,0.0533 0.148872,0.10936 0.236714,0.13052 0.0508,0.0106 0.103716,0.0134 0.156986,0.0134 0.340783,0.002 0.678391,0.013 1.019175,-0.0162 v 2.99861 c -0.915459,0.32738 -1.671109,1.04317 -1.990373,2.05952 -0.6223,1.98226 0.630767,3.76978 2.477206,4.56283"
         style="fill:#352018;fill-opacity:1;fill-rule:nonzero;stroke:none;stroke-width:0.0352778"
         id="path146" />
    </g>
  </g>
</svg>
